PathFileType	4	(X/Y/Z)	F:\MotionCapture\20160217\3\Generated_files\EMG_Fprce_test02-Dynamic.trc
DataRate	CameraRate	NumFrames	NumMarkers	Units	OrigDataRate	OrigDataStartFrame	OrigNumFrames
120.00	120.00	       4	39	mm	120.00	264	       703
Frame#	Time	Top.Head			Front.Head			Rear.Head			R.Shoulder			R.Offset			R.Elbow			R.Wrist			L.Shoulder			L.Elbow			L.Wrist			R.ASIS			L.ASIS			V.Sacral			R.Thigh			R.Knee			R.Shank			R.Ankle			R.Heel			R.Toe			L.Thigh			L.Knee			L.Shank			L.Ankle			L.Heel			L.Toe			R1			R2			R3			R4			R5			R6			R7			L1			L2			L3			L4			L5			L6			L7			V_Mid_ASIS			V_Pelvis_Origin			V_R.Hip_JC			V_L.Hip_JC			V_R.Knee_JC			V_L.Knee_JC			V_R.Ankle_JC			V_L.Ankle_JC			V_Mid_Hip			V_Mid_Shoulder			V_R.Hand			V_L.Hand			V_R.Toe_Offset_Static			V_L.Toe_Offset_Static			V_R.Toe_Offset			V_L.Toe_Offset			
		X1	Y1	Z1	X2	Y2	Z2	X3	Y3	Z3	X4	Y4	Z4	X5	Y5	Z5	X6	Y6	Z6	X7	Y7	Z7	X8	Y8	Z8	X9	Y9	Z9	X10	Y10	Z10	X11	Y11	Z11	X12	Y12	Z12	X13	Y13	Z13	X14	Y14	Z14	X15	Y15	Z15	X16	Y16	Z16	X17	Y17	Z17	X18	Y18	Z18	X19	Y19	Z19	X20	Y20	Z20	X21	Y21	Z21	X22	Y22	Z22	X23	Y23	Z23	X24	Y24	Z24	X25	Y25	Z25	X26	Y26	Z26	X27	Y27	Z27	X28	Y28	Z28	X29	Y29	Z29	X30	Y30	Z30	X31	Y31	Z31	X32	Y32	Z32	X33	Y33	Z33	X34	Y34	Z34	X35	Y35	Z35	X36	Y36	Z36	X37	Y37	Z37	X38	Y38	Z38	X39	Y39	Z39	

264	2.192	1187.23975	124.56494	1709.52979	1069.85608	121.83553	1635.68420	1289.64990	117.47107	1632.07471				1353.48267	54.05323	1255.72534	1294.06287	-269.36853	860.20923	1307.35657	-209.23848	1110.62817	1210.29321	-94.62327	1404.40198				1212.77686	313.02689	1401.25195	1171.55042	261.73560	917.25177	1136.25903	-21.92963	930.51086	1376.20471	83.83213	925.71283	1172.73682	264.99976	532.57111	1278.62354	296.23923	439.14307	1445.52844	217.31444	272.81116	1618.93762	262.32071	219.77562	1648.64514	188.65981	268.65604	1610.21729	244.76419	68.95013	1027.28296	28.68233	646.45776	1062.51746	-21.00628	469.22946	1042.25818	62.95724	333.34454	1082.94922	4.61929	61.70382	1150.34412	58.95335	44.75886	943.94141	18.91666	43.70318	1582.17664	233.60051	36.53930	1588.87781	211.78366	70.07574	1592.16443	179.91461	162.44777	1627.26892	165.45248	224.17696	1654.54041	233.00806	241.47226	1649.14380	266.84003	164.92975	1638.61877	277.76559	98.86547	901.05109	48.56123	41.25063	933.61206	58.37067	46.86211	1030.16602	97.92959	52.24926	1113.28809	94.16501	45.67298	1123.86792	20.24812	43.49714	1047.26392	-3.62175	34.58697	982.78192	-13.41225	40.51709																																																	1229.29578	428.58789	1080.63147	1116.66772	-39.05614	-105.48392	1030.00330	412.20578	912.95349	
265	2.200	1175.44214	123.62421	1712.09570	1058.10278	121.00935	1637.90845	1277.97144	116.41038	1634.75476				1341.76599	52.54173	1258.59863	1273.10242	-268.42786	860.80817	1291.46973	-209.95485	1111.72949	1197.55334	-95.44808	1407.16125				1201.78589	312.08563	1404.06714	1160.07324	260.79440	919.80750	1125.07507	-23.33480	932.55414	1365.18896	83.50706	927.93665	1152.16406	264.09912	535.99896	1254.85974	296.63501	440.91037	1423.19543	216.90860	276.83115	1598.41150	260.49554	227.83224	1624.35364	186.33649	275.73584	1594.83057	249.89014	76.88449	1021.43158	28.56369	646.16711	1059.21033	-21.93040	469.34262	1039.11096	62.31538	332.95563	1083.27271	4.34929	61.53673	1150.49792	58.84105	44.70969	943.99426	18.74985	43.59042	1569.78967	244.01842	44.57138	1576.76550	216.04779	74.40654	1571.46289	179.22308	167.12860	1603.87756	164.15987	229.43468	1633.05017	231.12343	249.87988	1630.00952	265.18835	173.76485	1622.81885	277.38159	107.22135	901.38721	48.25364	41.16949	933.86578	58.25984	46.88453	1030.19373	97.72351	52.44944	1113.37012	94.02122	45.69246	1124.21106	20.06035	43.43118	1047.40613	-3.82061	34.55030	982.98798	-13.64550	40.34678																																																	1220.91333	427.47150	1083.61682	1023.85577	412.21854	911.13770	
266	2.208	1163.77063	122.63165	1714.83301	1045.90759	120.26216	1640.60535	1266.40308	115.50827	1637.42273				1329.44141	50.67439	1261.61206	1251.29846	-266.88275	861.48560	1275.07104	-210.72379	1112.07104	1184.91479	-96.57581	1409.83508				1190.67896	311.28342	1406.33704	1148.15125	259.55594	922.07245	1114.13806	-24.47902	934.40216	1354.20605	83.35810	930.23938	1131.95557	263.45856	540.05524	1231.54370	297.28137	442.84772	1401.12402	215.08170	280.22205	1576.76147	258.94952	234.52412	1601.00891	182.07378	280.08313	1575.82104	251.88469	83.79138	1015.44879	28.46943	645.99646	1055.53455	-22.76538	469.32571	1037.92676	61.47048	332.40656	1083.55261	4.30723	61.32522	1150.90430	58.52475	44.73853	944.16284	18.51350	43.36092	1549.90283	248.18726	50.95661	1555.73718	220.70262	79.59804	1550.59985	178.90074	170.93611	1581.32263	161.53290	233.59964	1609.71277	226.58423	255.46393	1609.94934	264.47797	180.99335	1603.46631	278.66586	115.16133	901.69598	48.00782	40.94897	934.11169	58.04128	46.79848	1030.22119	97.44131	52.65510	1113.55786	93.75486	45.79964	1124.51514	19.81343	43.40815	1047.51318	-3.89875	34.37318	983.16815	-13.90971	40.16706																																																	1211.56555	425.87460	1086.36816	1018.87494	412.26532	909.31396	1461.43408	224.11855	-9.10974	1388.02734	-52.08250	-111.85458	
267	2.217	1151.99316	121.63318	1717.20752	1034.91553	118.93204	1643.11218	1254.47729	114.60226	1639.98535				1317.91479	48.72637	1264.60938	1229.30115	-265.70395	861.91833	1258.70300	-211.34090	1112.54968	1171.64282	-97.72827	1412.21924				1180.65161	310.78595	1408.95386	1136.75903	258.28366	924.54254	1103.95227	-25.77594	936.24066	1343.25415	82.85136	932.44324	1111.20715	262.47717	543.96545	1208.13086	298.00104	445.34442	1378.35657	213.55405	284.78094	1554.69360	256.27908	240.33810	1580.59180	177.18350	283.61728	1550.73035	252.97929	90.08251	1009.63123	28.36708	645.28802	1053.13049	-23.87349	469.13989	1035.68872	60.18575	332.46448	1083.88574	4.14700	61.21516	1150.98853	58.58843	44.67899	944.36334	18.29745	43.20119	1525.40051	248.98895	54.80627	1529.88892	222.05582	84.88260	1527.45410	178.03339	174.97342	1559.58191	158.96658	236.84981	1587.99573	223.69958	260.32657	1587.31348	263.53717	187.32303	1580.24866	281.63110	122.46767	901.94635	47.74618	40.97512	934.29535	57.87169	46.82921	1030.46265	97.03783	53.03610	1113.93457	93.64721	46.09641	1124.53027	19.64807	43.31147	1047.67114	-4.03678	34.27018	983.20508	-14.10123	40.00908																																																	1202.95776	425.16660	1088.93457	1013.50891	412.65009	907.72076	1362.00427	-48.17905	-106.48619	
